<?xml version="1.0" encoding="iso-8859-1"?>
<!-- Generator: Adobe Illustrator 21.0.0, SVG Export Plug-In . SVG Version: 6.00 Build 0)  -->
<svg xmlns="http://www.w3.org/2000/svg" xmlns:xlink="http://www.w3.org/1999/xlink" version="1.1" id="Capa_1" x="0px" y="0px" viewBox="0 0 512 512" style="enable-background:new 0 0 512 512;" xml:space="preserve" width="512" height="512">
<g>
	<path d="M477.1,4.799C474.101,1.8,470.2,0,466,0H46c-4.2,0-8.101,1.8-11.1,4.799c-2.701,3.001-4.2,7.2-3.9,11.4l30,420   c0.601,6,4.501,11.1,10.201,12.9l180,62C252.7,511.7,254.5,512,256,512s3.3-0.3,4.799-0.901l180-62c5.7-1.8,9.6-6.899,10.201-12.9   l30-420C481.3,11.999,479.801,7.8,477.1,4.799z M412.301,136.199c-0.601,7.8-7.202,13.801-15,13.801h-206.1l3.3,45h197.401   c4.199,0,8.099,1.8,11.1,4.799c2.699,3.001,4.199,7.2,3.9,11.4L393.999,391.8c-0.599,6-4.499,11.1-10.199,12.9l-123.001,41.1   c-1.5,0.601-3.3,0.901-4.799,0.901s-3.3-0.3-4.799-0.901L128.2,404.7c-5.7-1.8-9.6-6.899-10.199-13.2l-4.2-60.601   c-0.3-3.9,1.199-8.099,3.9-11.1C120.7,316.8,124.6,315,128.8,315h60c7.8,0,14.399,6,15,13.799l0.3,6.601L256,352.5l51.899-17.1   l3.301-50.4H124.3c-7.8,0-14.399-6-15-13.801l-13.799-195c-0.3-4.2,1.199-8.399,3.9-11.4C102.4,61.8,106.3,60,110.501,60h290.999   c4.2,0,8.101,1.8,11.1,4.799c2.701,3.001,4.2,7.2,3.9,11.4L412.301,136.199z M138.401,255h189c4.2,0,8.101,1.8,11.1,4.799   c2.701,3.001,4.2,7.2,3.9,11.4l-5.4,76.199c-0.601,6.301-4.501,11.4-10.201,13.2l-66,21.901c-2.999,1.199-6.599,1.199-9.598,0   l-66-21.901c-5.7-1.8-9.6-6.899-10.201-12.9l-0.3-2.699H145l2.401,34.499L256,415.8l108.6-36.301L375.7,225h-195.3   c-7.8,0-14.399-6-15-13.801l-5.4-75c-0.3-4.2,1.201-8.399,3.9-11.4C166.901,121.8,170.799,120,175,120h208.2l2.1-30H126.7   L138.401,255z"/>
</g>















</svg>
